<?xml version="1.0" encoding="UTF-8"?>
<svg version="1.1" xmlns="http://www.w3.org/2000/svg" width="658" height="656">
<path d="M0 0 C1.02409973 -0.00705963 2.04819946 -0.01411926 3.10333252 -0.02139282 C45.9067663 -0.24949737 45.9067663 -0.24949737 64.90234375 3.203125 C66.6205835 3.50911621 66.6205835 3.50911621 68.37353516 3.82128906 C115.23821089 12.38064895 159.89864911 29.57147532 198.90234375 57.203125 C199.64194336 57.72632324 200.38154297 58.24952148 201.14355469 58.78857422 C217.29693563 70.29113587 231.73074434 82.86898023 245.77734375 96.828125 C246.57933197 97.62194077 246.57933197 97.62194077 247.39752197 98.43179321 C254.36848285 105.34981585 260.83829062 112.45926633 266.90234375 120.203125 C267.77004395 121.29778076 267.77004395 121.29778076 268.65527344 122.41455078 C276.22316918 132.02171354 283.41986874 141.82910869 289.90234375 152.203125 C290.32161133 152.87408203 290.74087891 153.54503906 291.17285156 154.23632812 C313.87429953 191.0430334 329.40814598 232.41959058 335.90234375 275.203125 C336.12664062 276.6562207 336.12664062 276.6562207 336.35546875 278.13867188 C347.27927288 352.39228878 332.37788175 436.17541402 289.06640625 498.36328125 C287.73529595 500.30427123 287.73529595 500.30427123 286.90234375 503.203125 C286.24234375 503.203125 285.58234375 503.203125 284.90234375 503.203125 C284.90234375 504.193125 284.90234375 505.183125 284.90234375 506.203125 C284.24234375 506.203125 283.58234375 506.203125 282.90234375 506.203125 C282.90234375 507.193125 282.90234375 508.183125 282.90234375 509.203125 C282.24234375 509.203125 281.58234375 509.203125 280.90234375 509.203125 C280.57234375 510.523125 280.24234375 511.843125 279.90234375 513.203125 C279.24234375 513.203125 278.58234375 513.203125 277.90234375 513.203125 C277.90234375 514.193125 277.90234375 515.183125 277.90234375 516.203125 C277.24234375 516.203125 276.58234375 516.203125 275.90234375 516.203125 C275.57234375 517.523125 275.24234375 518.843125 274.90234375 520.203125 C274.24234375 520.203125 273.58234375 520.203125 272.90234375 520.203125 C272.57234375 521.523125 272.24234375 522.843125 271.90234375 524.203125 C271.24234375 524.203125 270.58234375 524.203125 269.90234375 524.203125 C269.24234375 525.853125 268.58234375 527.503125 267.90234375 529.203125 C267.24234375 529.203125 266.58234375 529.203125 265.90234375 529.203125 C265.63421875 530.0075 265.36609375 530.811875 265.08984375 531.640625 C264.50203125 532.9090625 264.50203125 532.9090625 263.90234375 534.203125 C262.91234375 534.533125 261.92234375 534.863125 260.90234375 535.203125 C260.19839763 536.51715776 259.53888717 537.8551507 258.90234375 539.203125 C256.90234375 541.953125 256.90234375 541.953125 254.90234375 544.203125 C254.24234375 544.203125 253.58234375 544.203125 252.90234375 544.203125 C252.90234375 544.863125 252.90234375 545.523125 252.90234375 546.203125 C251.28259816 547.91542748 249.60644915 549.57475762 247.90234375 551.203125 C247.07734375 552.028125 246.25234375 552.853125 245.40234375 553.703125 C242.90234375 556.203125 240.40234375 558.703125 237.90234375 561.203125 C237.03996094 562.07324219 236.17757812 562.94335938 235.2890625 563.83984375 C227.85275697 571.203125 227.85275697 571.203125 224.90234375 571.203125 C224.65484375 571.8425 224.40734375 572.481875 224.15234375 573.140625 C222.90234375 575.203125 222.90234375 575.203125 220.83984375 575.765625 C220.20046875 575.91 219.56109375 576.054375 218.90234375 576.203125 C218.57234375 577.193125 218.24234375 578.183125 217.90234375 579.203125 C216.56901042 579.53645833 215.23567708 579.86979167 213.90234375 580.203125 C213.57234375 581.193125 213.24234375 582.183125 212.90234375 583.203125 C210.83984375 583.890625 210.83984375 583.890625 208.90234375 584.203125 C208.90234375 584.863125 208.90234375 585.523125 208.90234375 586.203125 C206.34087805 588.49961149 205.42266803 589.203125 201.90234375 589.203125 C201.90234375 589.863125 201.90234375 590.523125 201.90234375 591.203125 C199.98828125 592.61328125 199.98828125 592.61328125 197.27734375 594.265625 C193.45278662 596.61995008 189.6721418 599.01363807 185.93457031 601.50390625 C178.55413022 606.38228914 170.90412905 610.3796118 162.93896484 614.21044922 C160.898617 615.20494147 158.87756939 616.23089116 156.859375 617.26953125 C81.77716124 655.85509366 -8.48673091 659.63916211 -88.22363281 634.20605469 C-133.19823539 619.24435439 -177.36948763 594.07278219 -210.47265625 559.828125 C-212.2668542 557.9794297 -212.2668542 557.9794297 -215.16015625 555.703125 C-218.11660404 553.18699922 -220.49880687 550.55555289 -223.00390625 547.60546875 C-225.01374904 545.29939913 -227.09971157 543.08177605 -229.20849609 540.86645508 C-283.03552479 483.95838878 -311.29200859 403.27312836 -311.34765625 325.703125 C-311.34833099 324.85029938 -311.34900574 323.99747375 -311.34970093 323.11880493 C-311.27529166 263.42658073 -294.90346274 205.05529756 -263.39160156 154.31738281 C-261.55586254 151.31785452 -259.82205483 148.26781442 -258.09765625 145.203125 C-257.43765625 145.203125 -256.77765625 145.203125 -256.09765625 145.203125 C-256.09765625 144.213125 -256.09765625 143.223125 -256.09765625 142.203125 C-255.43765625 142.203125 -254.77765625 142.203125 -254.09765625 142.203125 C-253.78828125 141.419375 -253.47890625 140.635625 -253.16015625 139.828125 C-252.09765625 137.203125 -252.09765625 137.203125 -251.09765625 135.203125 C-250.43765625 135.203125 -249.77765625 135.203125 -249.09765625 135.203125 C-248.76765625 133.883125 -248.43765625 132.563125 -248.09765625 131.203125 C-247.43765625 131.203125 -246.77765625 131.203125 -246.09765625 131.203125 C-245.99453125 130.625625 -245.89140625 130.048125 -245.78515625 129.453125 C-244.9886916 126.84651342 -243.90700348 125.2295939 -242.09765625 123.203125 C-241.43765625 123.203125 -240.77765625 123.203125 -240.09765625 123.203125 C-239.72640625 122.11451172 -239.72640625 122.11451172 -239.34765625 121.00390625 C-237.97338171 117.92467236 -236.35109696 115.88846461 -234.09765625 113.390625 C-233.39640625 112.60042969 -232.69515625 111.81023437 -231.97265625 110.99609375 C-230.09765625 109.203125 -230.09765625 109.203125 -228.09765625 109.203125 C-227.85305664 108.47101807 -227.60845703 107.73891113 -227.35644531 106.98461914 C-225.94939201 103.87551164 -224.36888539 102.10145251 -221.95703125 99.69921875 C-221.13332031 98.87615234 -220.30960937 98.05308594 -219.4609375 97.20507812 C-218.59855469 96.35880859 -217.73617187 95.51253906 -216.84765625 94.640625 C-216.00074219 93.79048828 -215.15382813 92.94035156 -214.28125 92.06445312 C-210.10232168 87.92126992 -206.11127027 84.27896182 -201.09765625 81.203125 C-199.41002774 79.5576872 -197.74362135 77.89023923 -196.09765625 76.203125 C-190.59219177 71.203125 -190.59219177 71.203125 -188.09765625 71.203125 C-187.60265625 69.718125 -187.60265625 69.718125 -187.09765625 68.203125 C-185.03515625 67.515625 -185.03515625 67.515625 -183.09765625 67.203125 C-183.09765625 66.543125 -183.09765625 65.883125 -183.09765625 65.203125 C-181.77765625 64.873125 -180.45765625 64.543125 -179.09765625 64.203125 C-179.09765625 63.543125 -179.09765625 62.883125 -179.09765625 62.203125 C-174.71304087 59.203125 -174.71304087 59.203125 -172.09765625 59.203125 C-172.09765625 58.543125 -172.09765625 57.883125 -172.09765625 57.203125 C-166.22021945 52.69808461 -159.79203369 48.89098313 -153.26953125 45.3984375 C-151.0277173 44.16463342 -148.88648029 42.81857258 -146.72265625 41.453125 C-139.74353437 37.23091907 -132.2945374 33.91244484 -124.89379883 30.50610352 C-122.82022917 29.5398378 -120.75637516 28.55266387 -118.69799805 27.55444336 C-109.75342684 23.23767469 -100.72086467 19.7272072 -91.28515625 16.640625 C-90.57455048 16.40600555 -89.8639447 16.17138611 -89.13180542 15.92965698 C-60.50085641 6.51591795 -30.23290524 0.13940888 0 0 Z " fill="#151415" transform="translate(315.09765625,3.796875)"/>
<path d="M0 0 C1.48777005 0.68235295 2.97754511 1.36034276 4.46875 2.03515625 C13.87838878 6.32367381 22.64981091 10.8331705 31 17 C32.52947266 18.10408203 32.52947266 18.10408203 34.08984375 19.23046875 C70.44972249 45.97497007 95.28666444 86.08197476 103.05078125 130.59375 C104.42243011 139.76203752 104.44254392 148.93571153 104.4375 158.1875 C104.4375705 159.11552429 104.43764099 160.04354858 104.43771362 160.99969482 C104.29980391 208.31951949 85.33652564 250.66347436 52 284 C81.04 284.33 110.08 284.66 140 285 C140 300.51 140 316.02 140 332 C111.11438827 332.02258507 82.22878371 332.0410014 53.3431654 332.05181217 C50.67156664 332.05283865 47.99996789 332.05387332 45.32836914 332.05493164 C44.66434746 332.05519395 44.00032578 332.05545626 43.31618223 332.05572652 C33.24602322 332.05980219 23.17586896 332.0668201 13.10571289 332.07543945 C1.4135827 332.08541566 -10.27854323 332.09186043 -21.97067755 332.09408849 C-28.15988326 332.09539061 -34.34907678 332.09844488 -40.53827858 332.10573006 C-46.36828811 332.11253659 -52.19828048 332.11460754 -58.02829361 332.11310768 C-60.16353766 332.11338193 -62.2987823 332.11535949 -64.4340229 332.11920547 C-114.54132573 332.2050027 -157.66324449 315.21924437 -193.42675781 279.578125 C-205.52323282 267.23582114 -215.07682053 253.31994012 -223 238 C-223.31420898 237.39752441 -223.62841797 236.79504883 -223.95214844 236.17431641 C-229.56827812 225.25073439 -233.62939453 213.79496403 -237 202 C-237.22880859 201.20964355 -237.45761719 200.41928711 -237.69335938 199.60498047 C-241.37491698 186.10499193 -241.41296365 172.33017362 -241.5 158.4375 C-241.51593704 157.08492096 -241.51593704 157.08492096 -241.53219604 155.70501709 C-241.68585883 138.65019196 -239.60433214 121.79698114 -233.9375 105.625 C-233.64931396 104.78396729 -233.36112793 103.94293457 -233.06420898 103.07641602 C-227.66611177 87.92305675 -220.6860362 72.89583377 -211 60 C-210.26652344 58.98550781 -209.53304687 57.97101563 -208.77734375 56.92578125 C-199.40129346 44.16210469 -188.63381064 32.57664946 -176 23 C-175.11570312 22.2884375 -174.23140625 21.576875 -173.3203125 20.84375 C-126.15584889 -16.26070336 -54.49370639 -27.03618165 0 0 Z " fill="#FDFDFD" transform="translate(387,161)"/>
<path d="M0 0 C18.24895235 15.86103125 31.7329092 36.63298896 37.8125 60.125 C38.09867188 61.21296875 38.38484375 62.3009375 38.6796875 63.421875 C39.42116783 66.31717915 40.14015045 69.2129128 40.8125 72.125 C40.98523438 72.84913086 41.15796875 73.57326172 41.3359375 74.31933594 C41.92289979 77.77495616 42.01317017 81.17678747 42.05078125 84.671875 C42.058853 85.40134338 42.06692474 86.13081177 42.07524109 86.88238525 C42.08903925 88.4288906 42.0997804 89.97542586 42.10766602 91.52197266 C42.11906443 93.0692671 42.13931793 94.61652615 42.16918945 96.16357422 C42.45771209 111.15063262 39.90654886 124.75602242 34.5625 138.8125 C34.26585449 139.60084229 33.96920898 140.38918457 33.66357422 141.20141602 C21.52962491 172.38357914 -3.81518617 196.59554569 -34.05078125 210.078125 C-60.03556127 220.9283551 -90.0996957 222.86352553 -117.1875 215.125 C-118.29158203 214.81151611 -118.29158203 214.81151611 -119.41796875 214.49169922 C-151.3824925 205.05084984 -177.95709986 181.57113669 -193.90332031 152.64013672 C-203.16148892 134.50750308 -207.37173943 115.80356143 -207.42773438 95.5637207 C-207.43739946 93.45938958 -207.46848157 91.35605455 -207.5 89.25195312 C-207.56801849 80.51186559 -206.5086875 72.58075447 -204.1875 64.125 C-203.88430677 62.7972901 -203.58733672 61.46811865 -203.30078125 60.13671875 C-195.99836483 29.82278523 -174.13540273 3.2467863 -147.9375 -12.875 C-100.57831177 -41.13374324 -42.00265378 -35.54459146 0 0 Z " fill="#151415" transform="translate(401.1875,225.875)"/>
</svg>
